<svg xmlns="http://www.w3.org/2000/svg" xmlns:xlink="http://www.w3.org/1999/xlink" xml:space="preserve" version="1.1" viewBox="-0.0035552978515625 0.0037975311279296875 229.35829162597656 302.2662048339844" x="0px" y="0px" fill-rule="evenodd" clip-rule="evenodd" fill="#7D2B9C" width="512"  height="512" ><defs></defs><g fill="#7D2B9C"><circle cx="44.69" cy="168.14" r="19.16" fill="#7D2B9C"></circle><circle cx="91.35" cy="168.14" r="19.16" fill="#7D2B9C"></circle><circle cx="138.02" cy="168.14" r="19.16" fill="#7D2B9C"></circle><circle cx="184.68" cy="168.14" r="19.16" fill="#7D2B9C"></circle><circle cx="68.02" cy="206.46" r="19.16" fill="#7D2B9C"></circle><circle cx="114.68" cy="206.46" r="19.16" fill="#7D2B9C"></circle><circle cx="161.34" cy="206.46" r="19.16" fill="#7D2B9C"></circle><circle cx="91.35" cy="244.78" r="19.16" fill="#7D2B9C"></circle><circle cx="138.02" cy="244.78" r="19.16" fill="#7D2B9C"></circle><circle cx="114.68" cy="283.11" r="19.16" fill="#7D2B9C"></circle><circle cx="68.02" cy="129.81" r="19.16" fill="#7D2B9C"></circle><circle cx="114.68" cy="129.81" r="19.16" fill="#7D2B9C"></circle><circle cx="161.34" cy="129.81" r="19.16" fill="#7D2B9C"></circle><path d="M133.05 80.32c-4.11,-50.8 -78.58,-100.49 -113.87,-49.65 -28.77,41.45 19.26,78.3 40.59,47.6 9.86,-14.18 -3.72,-31.5 -14.77,-23.19 -8.89,6.69 -14.7,-14.35 7.81,-12.27 25.16,2.33 30.1,41.06 -0.45,54.3 -38.23,16.57 -75.07,-40.24 -35.06,-80.47 40,-40.21 111.27,-1.66 124.43,53.16 20.64,-22.18 49.29,-34.75 83.72,-26.13 6.66,1.67 4.13,11.79 -2.55,10.12 -41.85,-10.49 -73.41,14.65 -91.08,48.24 -3.21,6.1 -12.48,1.23 -9.27,-4.87 3.1,-5.9 6.61,-11.55 10.5,-16.85z" fill="#7D2B9C"></path></g></svg>