<svg width="389" height="512" viewBox="0 0 389 512" fill="none" xmlns="http://www.w3.org/2000/svg">
<path d="M75.9533 317.256C93.8775 317.256 108.408 302.725 108.408 284.801C108.408 266.877 93.8775 252.346 75.9533 252.346C58.0292 252.346 43.4988 266.877 43.4988 284.801C43.4988 302.725 58.0292 317.256 75.9533 317.256Z" fill="#3D0E20"/>
<path d="M154.989 317.256C172.914 317.256 187.444 302.725 187.444 284.801C187.444 266.877 172.914 252.346 154.989 252.346C137.065 252.346 122.535 266.877 122.535 284.801C122.535 302.725 137.065 317.256 154.989 317.256Z" fill="#3D0E20"/>
<path d="M234.042 317.256C251.967 317.256 266.497 302.725 266.497 284.801C266.497 266.877 251.967 252.346 234.042 252.346C216.118 252.346 201.588 266.877 201.588 284.801C201.588 302.725 216.118 317.256 234.042 317.256Z" fill="#3D0E20"/>
<path d="M313.078 317.256C331.002 317.256 345.533 302.725 345.533 284.801C345.533 266.877 331.002 252.346 313.078 252.346C295.154 252.346 280.624 266.877 280.624 284.801C280.624 302.725 295.154 317.256 313.078 317.256Z" fill="#3D0E20"/>
<path d="M115.471 382.165C133.396 382.165 147.926 367.634 147.926 349.71C147.926 331.786 133.396 317.256 115.471 317.256C97.5472 317.256 83.0168 331.786 83.0168 349.71C83.0168 367.634 97.5472 382.165 115.471 382.165Z" fill="#3D0E20"/>
<path d="M194.508 382.165C212.432 382.165 226.962 367.634 226.962 349.71C226.962 331.786 212.432 317.256 194.508 317.256C176.583 317.256 162.053 331.786 162.053 349.71C162.053 367.634 176.583 382.165 194.508 382.165Z" fill="#3D0E20"/>
<path d="M273.543 382.165C291.468 382.165 305.998 367.634 305.998 349.71C305.998 331.786 291.468 317.256 273.543 317.256C255.619 317.256 241.089 331.786 241.089 349.71C241.089 367.634 255.619 382.165 273.543 382.165Z" fill="#3D0E20"/>
<path d="M154.989 447.074C172.914 447.074 187.444 432.544 187.444 414.619C187.444 396.695 172.914 382.165 154.989 382.165C137.065 382.165 122.535 396.695 122.535 414.619C122.535 432.544 137.065 447.074 154.989 447.074Z" fill="#3D0E20"/>
<path d="M234.042 447.074C251.967 447.074 266.497 432.544 266.497 414.619C266.497 396.695 251.967 382.165 234.042 382.165C216.118 382.165 201.588 396.695 201.588 414.619C201.588 432.544 216.118 447.074 234.042 447.074Z" fill="#3D0E20"/>
<path d="M194.508 512C212.432 512 226.962 497.47 226.962 479.545C226.962 461.621 212.432 447.091 194.508 447.091C176.583 447.091 162.053 461.621 162.053 479.545C162.053 497.47 176.583 512 194.508 512Z" fill="#3D0E20"/>
<path d="M115.471 252.33C133.396 252.33 147.926 237.799 147.926 219.875C147.926 201.951 133.396 187.42 115.471 187.42C97.5472 187.42 83.0168 201.951 83.0168 219.875C83.0168 237.799 97.5472 252.33 115.471 252.33Z" fill="#3D0E20"/>
<path d="M194.508 252.33C212.432 252.33 226.962 237.799 226.962 219.875C226.962 201.951 212.432 187.42 194.508 187.42C176.583 187.42 162.053 201.951 162.053 219.875C162.053 237.799 176.583 252.33 194.508 252.33Z" fill="#3D0E20"/>
<path d="M273.543 252.33C291.468 252.33 305.998 237.799 305.998 219.875C305.998 201.951 291.468 187.42 273.543 187.42C255.619 187.42 241.089 201.951 241.089 219.875C241.089 237.799 255.619 252.33 273.543 252.33Z" fill="#3D0E20"/>
<path fill-rule="evenodd" clip-rule="evenodd" d="M225.624 136.045C218.662 49.9966 92.5195 -34.1718 32.7428 51.9446C-15.9899 122.156 65.3667 184.575 101.497 132.573C118.199 108.554 95.1958 79.2159 76.4785 93.292C61.42 104.624 51.5786 68.9849 89.7076 72.5082C132.325 76.4549 140.693 142.059 88.9454 164.485C24.1887 192.553 -38.2135 96.324 29.5583 28.1796C97.3131 -39.931 218.035 25.3677 240.327 118.226C275.288 80.6557 323.818 59.3637 382.138 73.9649C393.419 76.7937 389.133 93.9356 377.818 91.1069C306.93 73.3382 253.471 115.922 223.54 172.819C218.103 183.152 202.401 174.903 207.838 164.57C213.089 154.576 219.035 145.006 225.624 136.028V136.045Z" fill="#3D0E20"/>
</svg>
