<svg width="203" height="219" viewBox="0 0 203 219" fill="none" xmlns="http://www.w3.org/2000/svg">
<path d="M62.545 102.86C68.3564 102.86 73.0674 98.1492 73.0674 92.3378C73.0674 86.5265 68.3564 81.8154 62.545 81.8154C56.7337 81.8154 52.0226 86.5265 52.0226 92.3378C52.0226 98.1492 56.7337 102.86 62.545 102.86Z" fill="#7D2B9C"/>
<path d="M88.17 102.86C93.9813 102.86 98.6924 98.1492 98.6924 92.3378C98.6924 86.5265 93.9813 81.8154 88.17 81.8154C82.3586 81.8154 77.6476 86.5265 77.6476 92.3378C77.6476 98.1492 82.3586 102.86 88.17 102.86Z" fill="#7D2B9C"/>
<path d="M113.8 102.86C119.612 102.86 124.323 98.1492 124.323 92.3378C124.323 86.5265 119.612 81.8154 113.8 81.8154C107.989 81.8154 103.278 86.5265 103.278 92.3378C103.278 98.1492 107.989 102.86 113.8 102.86Z" fill="#7D2B9C"/>
<path d="M139.425 102.86C145.237 102.86 149.948 98.1492 149.948 92.3378C149.948 86.5265 145.237 81.8154 139.425 81.8154C133.614 81.8154 128.903 86.5265 128.903 92.3378C128.903 98.1492 133.614 102.86 139.425 102.86Z" fill="#7D2B9C"/>
<path d="M75.3575 123.905C81.1688 123.905 85.8799 119.194 85.8799 113.383C85.8799 107.571 81.1688 102.86 75.3575 102.86C69.5461 102.86 64.8351 107.571 64.8351 113.383C64.8351 119.194 69.5461 123.905 75.3575 123.905Z" fill="#7D2B9C"/>
<path d="M100.982 123.905C106.794 123.905 111.505 119.194 111.505 113.383C111.505 107.571 106.794 102.86 100.982 102.86C95.1711 102.86 90.4601 107.571 90.4601 113.383C90.4601 119.194 95.1711 123.905 100.982 123.905Z" fill="#7D2B9C"/>
<path d="M126.607 123.905C132.419 123.905 137.13 119.194 137.13 113.383C137.13 107.571 132.419 102.86 126.607 102.86C120.796 102.86 116.085 107.571 116.085 113.383C116.085 119.194 120.796 123.905 126.607 123.905Z" fill="#7D2B9C"/>
<path d="M88.17 144.95C93.9813 144.95 98.6924 140.239 98.6924 134.427C98.6924 128.616 93.9813 123.905 88.17 123.905C82.3586 123.905 77.6476 128.616 77.6476 134.427C77.6476 140.239 82.3586 144.95 88.17 144.95Z" fill="#7D2B9C"/>
<path d="M113.8 144.95C119.612 144.95 124.323 140.239 124.323 134.427C124.323 128.616 119.612 123.905 113.8 123.905C107.989 123.905 103.278 128.616 103.278 134.427C103.278 140.239 107.989 144.95 113.8 144.95Z" fill="#7D2B9C"/>
<path d="M100.982 166C106.794 166 111.505 161.289 111.505 155.478C111.505 149.666 106.794 144.955 100.982 144.955C95.1711 144.955 90.4601 149.666 90.4601 155.478C90.4601 161.289 95.1711 166 100.982 166Z" fill="#7D2B9C"/>
<path d="M75.3575 81.81C81.1688 81.81 85.8799 77.0989 85.8799 71.2876C85.8799 65.4762 81.1688 60.7652 75.3575 60.7652C69.5461 60.7652 64.8351 65.4762 64.8351 71.2876C64.8351 77.0989 69.5461 81.81 75.3575 81.81Z" fill="#7D2B9C"/>
<path d="M100.982 81.81C106.794 81.81 111.505 77.0989 111.505 71.2876C111.505 65.4762 106.794 60.7652 100.982 60.7652C95.1711 60.7652 90.4601 65.4762 90.4601 71.2876C90.4601 77.0989 95.1711 81.81 100.982 81.81Z" fill="#7D2B9C"/>
<path d="M126.607 81.81C132.419 81.81 137.13 77.0989 137.13 71.2876C137.13 65.4762 132.419 60.7652 126.607 60.7652C120.796 60.7652 116.085 65.4762 116.085 71.2876C116.085 77.0989 120.796 81.81 126.607 81.81Z" fill="#7D2B9C"/>
<path fill-rule="evenodd" clip-rule="evenodd" d="M111.071 44.1084C108.814 16.2098 67.916 -11.0791 48.5353 16.8414C32.7353 39.6051 59.1126 59.8426 70.8267 42.9826C76.2417 35.1952 68.7838 25.6833 62.7153 30.247C57.833 33.921 54.6422 22.3662 67.0044 23.5085C80.8219 24.7881 83.5349 46.058 66.7573 53.3292C45.7619 62.4292 25.53 31.23 47.5028 9.13634C69.4702 -12.9464 108.611 8.2247 115.838 38.331C127.173 26.1501 142.907 19.2468 161.816 23.9808C165.473 24.8979 164.084 30.4557 160.415 29.5386C137.432 23.7776 120.1 37.5841 110.395 56.0312C108.633 59.3812 103.542 56.7067 105.305 53.3567C107.007 50.1165 108.935 47.0136 111.071 44.1029V44.1084Z" fill="#7D2B9C"/>
<path d="M0 182H1.57223L26.8973 208.958V191.639C26.8973 190.244 26.8812 189.027 26.8489 187.987C26.8166 186.946 26.7683 186.043 26.7038 185.277C26.6393 184.52 26.5627 183.887 26.474 183.379C26.3772 182.871 26.2805 182.443 26.1837 182.097V182H30.5618V182.097C30.465 182.443 30.3763 182.871 30.2957 183.379C30.2151 183.887 30.1425 184.52 30.078 185.277C30.0055 186.043 29.953 186.946 29.9208 187.987C29.8885 189.027 29.8724 190.244 29.8724 191.639V217.762H29.0137L3.6887 190.829V207.652C3.6887 209.046 3.70483 210.264 3.73708 211.304C3.76933 212.344 3.8177 213.243 3.88221 214.001C3.94671 214.751 4.01927 215.38 4.0999 215.888C4.18053 216.396 4.27325 216.823 4.37806 217.17V217.266H0V217.17C0.0967528 216.823 0.189474 216.396 0.278164 215.888C0.366854 215.38 0.44345 214.751 0.507952 214.001C0.572454 213.243 0.62083 212.344 0.653081 211.304C0.693395 210.264 0.713552 209.046 0.713552 207.652V191.639C0.713552 190.244 0.693395 189.027 0.653081 187.987C0.62083 186.946 0.572454 186.043 0.507952 185.277C0.44345 184.52 0.366854 183.887 0.278164 183.379C0.189474 182.871 0.0967528 182.443 0 182.097V182ZM35.7018 203.963C35.7018 202.028 36.0686 200.23 36.8023 198.569C37.528 196.916 38.5237 195.481 39.7896 194.263C41.0474 193.038 42.539 192.082 44.2644 191.397C45.9818 190.704 47.8241 190.357 49.7914 190.357C51.7265 190.357 53.5527 190.684 55.27 191.337C56.9793 191.982 58.4709 192.901 59.7448 194.094C61.0188 195.295 62.0226 196.747 62.7563 198.448C63.498 200.157 63.8689 202.068 63.8689 204.181C63.8689 205.938 63.5545 207.631 62.9256 209.26C62.3048 210.889 61.3977 212.332 60.2044 213.59C59.0031 214.848 57.5276 215.847 55.778 216.589C54.0203 217.339 52.0087 217.714 49.743 217.714C47.8322 217.714 46.0221 217.391 44.3128 216.746C42.6115 216.109 41.1199 215.198 39.838 214.013C38.556 212.82 37.5481 211.377 36.8144 209.683C36.0727 207.982 35.7018 206.075 35.7018 203.963ZM50.3598 215.96C51.6095 215.96 52.7585 215.714 53.8066 215.222C54.8548 214.731 55.7619 214.025 56.5278 213.106C57.2857 212.187 57.8743 211.07 58.2936 209.756C58.7128 208.434 58.9224 206.946 58.9224 205.293C58.9224 203.407 58.7209 201.661 58.3177 200.056C57.9146 198.444 57.3099 197.053 56.5036 195.884C55.6893 194.707 54.6734 193.788 53.4559 193.127C52.2465 192.465 50.8315 192.135 49.2109 192.135C47.9612 192.135 46.8122 192.373 45.7641 192.848C44.7159 193.324 43.8089 194.009 43.0429 194.904C42.285 195.807 41.6924 196.916 41.2651 198.23C40.8377 199.545 40.6241 201.036 40.6241 202.705C40.6241 204.576 40.8337 206.317 41.253 207.93C41.6722 209.55 42.285 210.953 43.0913 212.138C43.9056 213.324 44.9175 214.259 46.1269 214.944C47.3444 215.622 48.7553 215.96 50.3598 215.96ZM64.655 182H71.3915V182.097C71.3592 182.177 71.335 182.302 71.3189 182.472C71.3028 182.633 71.2947 182.778 71.2947 182.907C71.2947 183.415 71.3632 183.975 71.5003 184.588C71.6374 185.209 71.9034 185.979 72.2985 186.898L83.1953 211.461L93.7172 187.092C93.9671 186.487 94.2332 185.822 94.5154 185.096C94.7895 184.379 94.9266 183.649 94.9266 182.907C94.9266 182.714 94.9104 182.544 94.8782 182.399C94.8459 182.262 94.8137 182.161 94.7815 182.097V182H99.8247V182.097C99.5102 182.411 99.1313 182.968 98.6878 183.766C98.2444 184.572 97.7606 185.564 97.2366 186.741L83.1469 218.028H81.1756L67.8237 187.95C67.5093 187.249 67.1867 186.568 66.8562 185.906C66.5175 185.253 66.1991 184.661 65.9007 184.129C65.6105 183.596 65.3484 183.149 65.1146 182.786C64.8889 182.423 64.7357 182.194 64.655 182.097V182ZM102.304 207.132V200.939C102.304 199.464 102.288 198.178 102.256 197.081C102.223 195.993 102.179 195.054 102.123 194.263C102.066 193.465 101.994 192.796 101.905 192.256C101.808 191.716 101.703 191.272 101.59 190.925V190.829H107.299V190.925C107.186 191.272 107.085 191.716 106.996 192.256C106.9 192.796 106.823 193.465 106.767 194.263C106.71 195.054 106.666 195.993 106.634 197.081C106.601 198.178 106.585 199.464 106.585 200.939V207.132C106.585 208.607 106.601 209.893 106.634 210.99C106.666 212.094 106.71 213.042 106.767 213.832C106.823 214.63 106.9 215.299 106.996 215.839C107.085 216.379 107.186 216.823 107.299 217.17V217.266H101.59V217.17C101.703 216.823 101.808 216.379 101.905 215.839C101.994 215.299 102.066 214.63 102.123 213.832C102.179 213.042 102.223 212.094 102.256 210.99C102.288 209.893 102.304 208.607 102.304 207.132ZM137.776 200.939V217.605H136.808L117.264 198.375V207.132C117.264 208.607 117.272 209.893 117.289 210.99C117.305 212.094 117.333 213.042 117.373 213.832C117.414 214.63 117.47 215.299 117.543 215.839C117.615 216.379 117.708 216.823 117.821 217.17V217.266H114.132V217.17C114.253 216.823 114.354 216.379 114.434 215.839C114.515 215.299 114.579 214.63 114.628 213.832C114.676 213.042 114.708 212.094 114.725 210.99C114.741 209.893 114.749 208.607 114.749 207.132V200.939C114.749 199.464 114.741 198.178 114.725 197.081C114.708 195.993 114.676 195.054 114.628 194.263C114.579 193.465 114.515 192.796 114.434 192.256C114.354 191.716 114.253 191.272 114.132 190.925V190.829H115.656L135.236 210.155V200.939C135.236 199.464 135.228 198.178 135.212 197.081C135.196 195.993 135.168 195.054 135.127 194.263C135.087 193.465 135.035 192.796 134.97 192.256C134.906 191.716 134.813 191.272 134.692 190.925V190.829H138.356V190.925C138.244 191.272 138.151 191.716 138.078 192.256C138.006 192.796 137.945 193.465 137.897 194.263C137.849 195.054 137.816 195.993 137.8 197.081C137.784 198.178 137.776 199.464 137.776 200.939ZM163.887 207.132V204.628C163.379 204.628 162.75 204.624 162 204.616C161.243 204.608 160.42 204.596 159.533 204.58C158.646 204.564 157.727 204.551 156.776 204.543C155.832 204.535 154.917 204.531 154.03 204.531C153.192 204.531 152.41 204.539 151.684 204.555C150.95 204.572 150.322 204.596 149.798 204.628V207.132C149.798 208.607 149.814 209.893 149.846 210.99C149.878 212.094 149.922 213.042 149.979 213.832C150.035 214.63 150.108 215.299 150.197 215.839C150.277 216.379 150.374 216.823 150.487 217.17V217.266H144.803V217.17C144.916 216.823 145.02 216.379 145.117 215.839C145.206 215.299 145.278 214.63 145.335 213.832C145.391 213.042 145.436 212.094 145.468 210.99C145.5 209.893 145.516 208.607 145.516 207.132V200.939C145.516 199.464 145.5 198.178 145.468 197.081C145.436 195.993 145.391 195.054 145.335 194.263C145.278 193.465 145.206 192.796 145.117 192.256C145.02 191.716 144.916 191.272 144.803 190.925V190.829H150.487V190.925C150.374 191.272 150.277 191.716 150.197 192.256C150.108 192.796 150.035 193.465 149.979 194.263C149.922 195.054 149.878 195.993 149.846 197.081C149.814 198.178 149.798 199.464 149.798 200.939V202.608H153.414C154.317 202.608 155.268 202.604 156.268 202.596C157.268 202.588 158.235 202.58 159.17 202.572C160.106 202.564 160.981 202.552 161.795 202.536C162.617 202.52 163.315 202.495 163.887 202.463V200.939C163.887 199.464 163.871 198.178 163.839 197.081C163.807 195.993 163.762 195.054 163.706 194.263C163.649 193.465 163.581 192.796 163.5 192.256C163.411 191.716 163.311 191.272 163.198 190.925V190.829H168.882V190.925C168.769 191.272 168.668 191.716 168.58 192.256C168.483 192.796 168.406 193.465 168.35 194.263C168.293 195.054 168.249 195.993 168.217 197.081C168.185 198.178 168.168 199.464 168.168 200.939V207.132C168.168 208.607 168.185 209.893 168.217 210.99C168.249 212.094 168.293 213.042 168.35 213.832C168.406 214.63 168.483 215.299 168.58 215.839C168.668 216.379 168.769 216.823 168.882 217.17V217.266H163.198V217.17C163.311 216.823 163.411 216.379 163.5 215.839C163.581 215.299 163.649 214.63 163.706 213.832C163.762 213.042 163.807 212.094 163.839 210.99C163.871 209.893 163.887 208.607 163.887 207.132ZM173.925 203.963C173.925 202.028 174.288 200.23 175.014 198.569C175.747 196.916 176.743 195.481 178.001 194.263C179.267 193.038 180.762 192.082 182.488 191.397C184.205 190.704 186.048 190.357 188.015 190.357C189.95 190.357 191.776 190.684 193.493 191.337C195.203 191.982 196.694 192.901 197.968 194.094C199.234 195.295 200.238 196.747 200.98 198.448C201.713 200.157 202.08 202.068 202.08 204.181C202.08 205.938 201.77 207.631 201.149 209.26C200.528 210.889 199.617 212.332 198.416 213.59C197.222 214.848 195.747 215.847 193.989 216.589C192.24 217.339 190.232 217.714 187.966 217.714C186.048 217.714 184.237 217.391 182.536 216.746C180.827 216.109 179.335 215.198 178.061 214.013C176.779 212.82 175.768 211.377 175.026 209.683C174.292 207.982 173.925 206.075 173.925 203.963ZM188.583 215.96C189.825 215.96 190.974 215.714 192.03 215.222C193.078 214.731 193.981 214.025 194.739 213.106C195.505 212.187 196.098 211.07 196.517 209.756C196.936 208.434 197.146 206.946 197.146 205.293C197.146 203.407 196.944 201.661 196.541 200.056C196.138 198.444 195.529 197.053 194.715 195.884C193.909 194.707 192.897 193.788 191.679 193.127C190.47 192.465 189.051 192.135 187.422 192.135C186.181 192.135 185.036 192.373 183.988 192.848C182.931 193.324 182.024 194.009 181.266 194.904C180.5 195.807 179.904 196.916 179.476 198.23C179.057 199.545 178.848 201.036 178.848 202.705C178.848 204.576 179.053 206.317 179.464 207.93C179.884 209.55 180.5 210.953 181.315 212.138C182.129 213.324 183.141 214.259 184.35 214.944C185.568 215.622 186.979 215.96 188.583 215.96Z" fill="#7D2B9C"/>
</svg>
