<svg width="204" height="213" viewBox="0 0 204 213" fill="none" xmlns="http://www.w3.org/2000/svg">
<g clip-path="url(#clip0_74_2)">
<path d="M0.5 176H2.07223L27.3973 202.958V185.639C27.3973 184.244 27.3812 183.027 27.3489 181.987C27.3166 180.946 27.2683 180.043 27.2038 179.277C27.1393 178.52 27.0627 177.887 26.974 177.379C26.8772 176.871 26.7805 176.443 26.6837 176.097V176H31.0618V176.097C30.965 176.443 30.8763 176.871 30.7957 177.379C30.7151 177.887 30.6425 178.52 30.578 179.277C30.5055 180.043 30.453 180.946 30.4208 181.987C30.3885 183.027 30.3724 184.244 30.3724 185.639V211.762H29.5137L4.1887 184.829V201.652C4.1887 203.046 4.20483 204.264 4.23708 205.304C4.26933 206.344 4.3177 207.243 4.38221 208.001C4.44671 208.751 4.51927 209.38 4.5999 209.888C4.68053 210.396 4.77325 210.823 4.87806 211.17V211.266H0.5V211.17C0.596753 210.823 0.689474 210.396 0.778164 209.888C0.866854 209.38 0.94345 208.751 1.00795 208.001C1.07245 207.243 1.12083 206.344 1.15308 205.304C1.19339 204.264 1.21355 203.046 1.21355 201.652V185.639C1.21355 184.244 1.19339 183.027 1.15308 181.987C1.12083 180.946 1.07245 180.043 1.00795 179.277C0.94345 178.52 0.866854 177.887 0.778164 177.379C0.689474 176.871 0.596753 176.443 0.5 176.097V176ZM36.2018 197.963C36.2018 196.028 36.5686 194.23 37.3023 192.569C38.028 190.916 39.0237 189.481 40.2896 188.263C41.5474 187.038 43.039 186.082 44.7644 185.397C46.4818 184.704 48.3241 184.357 50.2914 184.357C52.2265 184.357 54.0527 184.684 55.77 185.337C57.4793 185.982 58.9709 186.901 60.2448 188.094C61.5188 189.295 62.5226 190.747 63.2563 192.448C63.998 194.157 64.3689 196.068 64.3689 198.181C64.3689 199.938 64.0545 201.631 63.4256 203.26C62.8048 204.889 61.8977 206.332 60.7044 207.59C59.5031 208.848 58.0276 209.847 56.278 210.589C54.5203 211.339 52.5087 211.714 50.243 211.714C48.3322 211.714 46.5221 211.391 44.8128 210.746C43.1115 210.109 41.6199 209.198 40.338 208.013C39.056 206.82 38.0481 205.377 37.3144 203.683C36.5727 201.982 36.2018 200.075 36.2018 197.963ZM50.8598 209.96C52.1095 209.96 53.2585 209.714 54.3066 209.222C55.3548 208.731 56.2619 208.025 57.0278 207.106C57.7857 206.187 58.3743 205.07 58.7936 203.756C59.2128 202.434 59.4224 200.946 59.4224 199.293C59.4224 197.407 59.2209 195.661 58.8177 194.056C58.4146 192.444 57.8099 191.053 57.0036 189.884C56.1893 188.707 55.1734 187.788 53.9559 187.127C52.7465 186.465 51.3315 186.135 49.7109 186.135C48.4612 186.135 47.3122 186.373 46.2641 186.848C45.2159 187.324 44.3089 188.009 43.5429 188.904C42.785 189.807 42.1924 190.916 41.7651 192.23C41.3377 193.545 41.1241 195.036 41.1241 196.705C41.1241 198.576 41.3337 200.317 41.753 201.93C42.1722 203.55 42.785 204.953 43.5913 206.138C44.4056 207.324 45.4175 208.259 46.6269 208.944C47.8444 209.622 49.2553 209.96 50.8598 209.96ZM65.155 176H71.8915V176.097C71.8592 176.177 71.835 176.302 71.8189 176.472C71.8028 176.633 71.7947 176.778 71.7947 176.907C71.7947 177.415 71.8632 177.975 72.0003 178.588C72.1374 179.209 72.4034 179.979 72.7985 180.898L83.6953 205.461L94.2172 181.092C94.4671 180.487 94.7332 179.822 95.0154 179.096C95.2895 178.379 95.4266 177.649 95.4266 176.907C95.4266 176.714 95.4104 176.544 95.3782 176.399C95.3459 176.262 95.3137 176.161 95.2815 176.097V176H100.325V176.097C100.01 176.411 99.6313 176.968 99.1878 177.766C98.7444 178.572 98.2606 179.564 97.7366 180.741L83.6469 212.028H81.6756L68.3237 181.95C68.0093 181.249 67.6867 180.568 67.3562 179.906C67.0175 179.253 66.6991 178.661 66.4007 178.129C66.1105 177.596 65.8484 177.149 65.6146 176.786C65.3889 176.423 65.2357 176.194 65.155 176.097V176ZM102.804 201.132V194.939C102.804 193.464 102.788 192.178 102.756 191.081C102.723 189.993 102.679 189.054 102.623 188.263C102.566 187.465 102.494 186.796 102.405 186.256C102.308 185.716 102.203 185.272 102.09 184.925V184.829H107.799V184.925C107.686 185.272 107.585 185.716 107.496 186.256C107.4 186.796 107.323 187.465 107.267 188.263C107.21 189.054 107.166 189.993 107.134 191.081C107.101 192.178 107.085 193.464 107.085 194.939V201.132C107.085 202.607 107.101 203.893 107.134 204.99C107.166 206.094 107.21 207.042 107.267 207.832C107.323 208.63 107.4 209.299 107.496 209.839C107.585 210.379 107.686 210.823 107.799 211.17V211.266H102.09V211.17C102.203 210.823 102.308 210.379 102.405 209.839C102.494 209.299 102.566 208.63 102.623 207.832C102.679 207.042 102.723 206.094 102.756 204.99C102.788 203.893 102.804 202.607 102.804 201.132ZM138.276 194.939V211.605H137.308L117.764 192.375V201.132C117.764 202.607 117.772 203.893 117.789 204.99C117.805 206.094 117.833 207.042 117.873 207.832C117.914 208.63 117.97 209.299 118.043 209.839C118.115 210.379 118.208 210.823 118.321 211.17V211.266H114.632V211.17C114.753 210.823 114.854 210.379 114.934 209.839C115.015 209.299 115.079 208.63 115.128 207.832C115.176 207.042 115.208 206.094 115.225 204.99C115.241 203.893 115.249 202.607 115.249 201.132V194.939C115.249 193.464 115.241 192.178 115.225 191.081C115.208 189.993 115.176 189.054 115.128 188.263C115.079 187.465 115.015 186.796 114.934 186.256C114.854 185.716 114.753 185.272 114.632 184.925V184.829H116.156L135.736 204.155V194.939C135.736 193.464 135.728 192.178 135.712 191.081C135.696 189.993 135.668 189.054 135.627 188.263C135.587 187.465 135.535 186.796 135.47 186.256C135.406 185.716 135.313 185.272 135.192 184.925V184.829H138.856V184.925C138.744 185.272 138.651 185.716 138.578 186.256C138.506 186.796 138.445 187.465 138.397 188.263C138.349 189.054 138.316 189.993 138.3 191.081C138.284 192.178 138.276 193.464 138.276 194.939ZM164.387 201.132V198.628C163.879 198.628 163.25 198.624 162.5 198.616C161.743 198.608 160.92 198.596 160.033 198.58C159.146 198.564 158.227 198.551 157.276 198.543C156.332 198.535 155.417 198.531 154.53 198.531C153.692 198.531 152.91 198.539 152.184 198.555C151.45 198.572 150.822 198.596 150.298 198.628V201.132C150.298 202.607 150.314 203.893 150.346 204.99C150.378 206.094 150.422 207.042 150.479 207.832C150.535 208.63 150.608 209.299 150.697 209.839C150.777 210.379 150.874 210.823 150.987 211.17V211.266H145.303V211.17C145.416 210.823 145.52 210.379 145.617 209.839C145.706 209.299 145.778 208.63 145.835 207.832C145.891 207.042 145.936 206.094 145.968 204.99C146 203.893 146.016 202.607 146.016 201.132V194.939C146.016 193.464 146 192.178 145.968 191.081C145.936 189.993 145.891 189.054 145.835 188.263C145.778 187.465 145.706 186.796 145.617 186.256C145.52 185.716 145.416 185.272 145.303 184.925V184.829H150.987V184.925C150.874 185.272 150.777 185.716 150.697 186.256C150.608 186.796 150.535 187.465 150.479 188.263C150.422 189.054 150.378 189.993 150.346 191.081C150.314 192.178 150.298 193.464 150.298 194.939V196.608H153.914C154.817 196.608 155.768 196.604 156.768 196.596C157.768 196.588 158.735 196.58 159.67 196.572C160.606 196.564 161.481 196.552 162.295 196.536C163.117 196.52 163.815 196.495 164.387 196.463V194.939C164.387 193.464 164.371 192.178 164.339 191.081C164.307 189.993 164.262 189.054 164.206 188.263C164.149 187.465 164.081 186.796 164 186.256C163.911 185.716 163.811 185.272 163.698 184.925V184.829H169.382V184.925C169.269 185.272 169.168 185.716 169.08 186.256C168.983 186.796 168.906 187.465 168.85 188.263C168.793 189.054 168.749 189.993 168.717 191.081C168.685 192.178 168.668 193.464 168.668 194.939V201.132C168.668 202.607 168.685 203.893 168.717 204.99C168.749 206.094 168.793 207.042 168.85 207.832C168.906 208.63 168.983 209.299 169.08 209.839C169.168 210.379 169.269 210.823 169.382 211.17V211.266H163.698V211.17C163.811 210.823 163.911 210.379 164 209.839C164.081 209.299 164.149 208.63 164.206 207.832C164.262 207.042 164.307 206.094 164.339 204.99C164.371 203.893 164.387 202.607 164.387 201.132ZM174.425 197.963C174.425 196.028 174.788 194.23 175.514 192.569C176.247 190.916 177.243 189.481 178.501 188.263C179.767 187.038 181.262 186.082 182.988 185.397C184.705 184.704 186.548 184.357 188.515 184.357C190.45 184.357 192.276 184.684 193.993 185.337C195.703 185.982 197.194 186.901 198.468 188.094C199.734 189.295 200.738 190.747 201.48 192.448C202.213 194.157 202.58 196.068 202.58 198.181C202.58 199.938 202.27 201.631 201.649 203.26C201.028 204.889 200.117 206.332 198.916 207.59C197.722 208.848 196.247 209.847 194.489 210.589C192.74 211.339 190.732 211.714 188.466 211.714C186.548 211.714 184.737 211.391 183.036 210.746C181.327 210.109 179.835 209.198 178.561 208.013C177.279 206.82 176.268 205.377 175.526 203.683C174.792 201.982 174.425 200.075 174.425 197.963ZM189.083 209.96C190.325 209.96 191.474 209.714 192.53 209.222C193.578 208.731 194.481 208.025 195.239 207.106C196.005 206.187 196.598 205.07 197.017 203.756C197.436 202.434 197.646 200.946 197.646 199.293C197.646 197.407 197.444 195.661 197.041 194.056C196.638 192.444 196.029 191.053 195.215 189.884C194.409 188.707 193.397 187.788 192.179 187.127C190.97 186.465 189.551 186.135 187.922 186.135C186.681 186.135 185.536 186.373 184.488 186.848C183.431 187.324 182.524 188.009 181.766 188.904C181 189.807 180.404 190.916 179.976 192.23C179.557 193.545 179.348 195.036 179.348 196.705C179.348 198.576 179.553 200.317 179.964 201.93C180.384 203.55 181 204.953 181.815 206.138C182.629 207.324 183.641 208.259 184.85 208.944C186.068 209.622 187.479 209.96 189.083 209.96Z" fill="white"/>
<path d="M68.0451 102.86C73.8565 102.86 78.5675 98.1492 78.5675 92.3378C78.5675 86.5265 73.8565 81.8154 68.0451 81.8154C62.2338 81.8154 57.5227 86.5265 57.5227 92.3378C57.5227 98.1492 62.2338 102.86 68.0451 102.86Z" fill="white"/>
<path d="M93.6701 102.86C99.4814 102.86 104.193 98.1492 104.193 92.3378C104.193 86.5265 99.4814 81.8154 93.6701 81.8154C87.8587 81.8154 83.1477 86.5265 83.1477 92.3378C83.1477 98.1492 87.8587 102.86 93.6701 102.86Z" fill="white"/>
<path d="M119.3 102.86C125.112 102.86 129.823 98.1492 129.823 92.3378C129.823 86.5265 125.112 81.8154 119.3 81.8154C113.489 81.8154 108.778 86.5265 108.778 92.3378C108.778 98.1492 113.489 102.86 119.3 102.86Z" fill="white"/>
<path d="M144.925 102.86C150.737 102.86 155.448 98.1492 155.448 92.3378C155.448 86.5265 150.737 81.8154 144.925 81.8154C139.114 81.8154 134.403 86.5265 134.403 92.3378C134.403 98.1492 139.114 102.86 144.925 102.86Z" fill="white"/>
<path d="M80.8576 123.905C86.6689 123.905 91.38 119.194 91.38 113.383C91.38 107.571 86.6689 102.86 80.8576 102.86C75.0462 102.86 70.3352 107.571 70.3352 113.383C70.3352 119.194 75.0462 123.905 80.8576 123.905Z" fill="white"/>
<path d="M106.482 123.905C112.294 123.905 117.005 119.194 117.005 113.383C117.005 107.571 112.294 102.86 106.482 102.86C100.671 102.86 95.9602 107.571 95.9602 113.383C95.9602 119.194 100.671 123.905 106.482 123.905Z" fill="white"/>
<path d="M132.107 123.905C137.919 123.905 142.63 119.194 142.63 113.383C142.63 107.571 137.919 102.86 132.107 102.86C126.296 102.86 121.585 107.571 121.585 113.383C121.585 119.194 126.296 123.905 132.107 123.905Z" fill="white"/>
<path d="M93.6701 144.95C99.4814 144.95 104.193 140.239 104.193 134.427C104.193 128.616 99.4814 123.905 93.6701 123.905C87.8587 123.905 83.1477 128.616 83.1477 134.427C83.1477 140.239 87.8587 144.95 93.6701 144.95Z" fill="white"/>
<path d="M119.3 144.95C125.112 144.95 129.823 140.239 129.823 134.427C129.823 128.616 125.112 123.905 119.3 123.905C113.489 123.905 108.778 128.616 108.778 134.427C108.778 140.239 113.489 144.95 119.3 144.95Z" fill="white"/>
<path d="M106.482 166C112.294 166 117.005 161.289 117.005 155.478C117.005 149.666 112.294 144.955 106.482 144.955C100.671 144.955 95.9602 149.666 95.9602 155.478C95.9602 161.289 100.671 166 106.482 166Z" fill="white"/>
<path d="M80.8576 81.8099C86.6689 81.8099 91.38 77.0988 91.38 71.2875C91.38 65.4761 86.6689 60.7651 80.8576 60.7651C75.0462 60.7651 70.3352 65.4761 70.3352 71.2875C70.3352 77.0988 75.0462 81.8099 80.8576 81.8099Z" fill="white"/>
<path d="M106.482 81.8099C112.294 81.8099 117.005 77.0988 117.005 71.2875C117.005 65.4761 112.294 60.7651 106.482 60.7651C100.671 60.7651 95.9602 65.4761 95.9602 71.2875C95.9602 77.0988 100.671 81.8099 106.482 81.8099Z" fill="white"/>
<path d="M132.107 81.8099C137.919 81.8099 142.63 77.0988 142.63 71.2875C142.63 65.4761 137.919 60.7651 132.107 60.7651C126.296 60.7651 121.585 65.4761 121.585 71.2875C121.585 77.0988 126.296 81.8099 132.107 81.8099Z" fill="white"/>
<path fill-rule="evenodd" clip-rule="evenodd" d="M116.571 44.1084C114.314 16.2098 73.416 -11.0791 54.0353 16.8414C38.2353 39.6051 64.6126 59.8426 76.3267 42.9826C81.7417 35.1952 74.2838 25.6833 68.2153 30.247C63.333 33.921 60.1422 22.3662 72.5044 23.5085C86.3219 24.7881 89.0349 46.058 72.2573 53.3292C51.2619 62.4292 31.03 31.23 53.0028 9.13636C74.9702 -12.9464 114.111 8.22472 121.338 38.331C132.673 26.1501 148.407 19.2468 167.316 23.9808C170.973 24.8979 169.584 30.4557 165.915 29.5386C142.932 23.7776 125.6 37.5841 115.895 56.0312C114.133 59.3812 109.042 56.7067 110.805 53.3567C112.507 50.1165 114.435 47.0136 116.571 44.1029V44.1084Z" fill="white"/>
</g>
<defs>
<clipPath id="clip0_74_2">
<rect width="203" height="213" fill="white" transform="translate(0.5)"/>
</clipPath>
</defs>
</svg>
